{
  "accessors": [
    {
      "bufferView": 2,
      "componentType": 5126,
      "count": 100,
      "max": [
        0.88209962844848633,
        3.3815760612487793,
        0.11960552632808685
      ],
      "min": [
        -0.76555919647216797,
        2.0637409687042236,
        -0.013289651833474636
      ],
      "type": "VEC3"
    },
    {
      "bufferView": 2,
      "byteOffset": 1200,
      "componentType": 5126,
      "count": 100,
      "max": [
        0.95763510465621948,
        0.95763492584228516,
        0.96367925405502319
      ],
      "min": [
        -0.95763510465621948,
        -0.95763510465621948,
        -1
      ],
      "type": "VEC3"
    },
    {
      "bufferView": 3,
      "componentType": 5126,
      "count": 100,
      "max": [
        1,
        0.96366477012634277,
        0.89442789554595947,
        1
      ],
      "min": [
        -0.96367925405502319,
        -0.96367889642715454,
        -0.95763510465621948,
        -1
      ],
      "type": "VEC4"
    },
    {
      "bufferView": 1,
      "componentType": 5126,
      "count": 100,
      "max": [
        0.34903043508529663,
        0.99290341138839722
      ],
      "min": [
        0.014965452253818512,
        0.069351457059383392
      ],
      "type": "VEC2"
    },
    {
      "bufferView": 0,
      "componentType": 5125,
      "count": 270,
      "max": [
        99
      ],
      "min": [
        0
      ],
      "type": "SCALAR"
    },
    {
      "bufferView": 2,
      "byteOffset": 2400,
      "componentType": 5126,
      "count": 4,
      "max": [
        0.74920415878295898,
        3.2466363906860352,
        -0.011336477473378181
      ],
      "min": [
        -0.63266408443450928,
        2.196636438369751,
        -0.011336478404700756
      ],
      "type": "VEC3"
    },
    {
      "bufferView": 2,
      "byteOffset": 2448,
      "componentType": 5126,
      "count": 4,
      "max": [
        -6.7395899971955942e-10,
        0,
        1
      ],
      "min": [
        -6.7395899971955942e-10,
        0,
        1
      ],
      "type": "VEC3"
    },
    {
      "bufferView": 3,
      "byteOffset": 1600,
      "componentType": 5126,
      "count": 4,
      "max": [
        -3.1377436471302644e-07,
        1,
        -2.1147103970489667e-16,
        1
      ],
      "min": [
        -3.4059800668728712e-07,
        1,
        -2.295491050794676e-16,
        1
      ],
      "type": "VEC4"
    },
    {
      "bufferView": 1,
      "byteOffset": 800,
      "componentType": 5126,
      "count": 4,
      "max": [
        1.0000002384185791,
        1.0000001192092896
      ],
      "min": [
        -1.1920928955078125e-07,
        -1.1920928955078125e-07
      ],
      "type": "VEC2"
    },
    {
      "bufferView": 0,
      "byteOffset": 1080,
      "componentType": 5125,
      "count": 6,
      "max": [
        3
      ],
      "min": [
        0
      ],
      "type": "SCALAR"
    }
  ],
  "asset": {
    "extras": {
      "author": "SebastianSosnowski (https://sketchfab.com/SebastianSosnowski)",
      "license": "CC-BY-4.0 (http://creativecommons.org/licenses/by/4.0/)",
      "source": "https://sketchfab.com/3d-models/painting-by-zdzislaw-beksinski-1-1b314ec7363f44b296be25f48804451b",
      "title": "Painting by Zdzislaw Beksinski (1)"
    },
    "generator": "Sketchfab-4.81.0",
    "version": "2.0"
  },
  "bufferViews": [
    {
      "buffer": 0,
      "byteLength": 1104,
      "byteOffset": 0,
      "name": "floatBufferViews",
      "target": 34963
    },
    {
      "buffer": 0,
      "byteLength": 832,
      "byteOffset": 1104,
      "byteStride": 8,
      "name": "floatBufferViews",
      "target": 34962
    },
    {
      "buffer": 0,
      "byteLength": 2496,
      "byteOffset": 1936,
      "byteStride": 12,
      "name": "floatBufferViews",
      "target": 34962
    },
    {
      "buffer": 0,
      "byteLength": 1664,
      "byteOffset": 4432,
      "byteStride": 16,
      "name": "floatBufferViews",
      "target": 34962
    }
  ],
  "buffers": [
    {
      "byteLength": 6096,
      "uri": "scene.bin"
    }
  ],
  "images": [
    {
      "uri": "textures/RAMY_metallicRoughness.png"
    },
    {
      "uri": "textures/RAMY_normal.png"
    },
    {
      "uri": "textures/RAMY_baseColor.jpeg"
    },
    {
      "uri": "textures/OBRAZ_metallicRoughness.png"
    },
    {
      "uri": "textures/OBRAZ_normal.png"
    },
    {
      "uri": "textures/OBRAZ_baseColor.jpeg"
    }
  ],
  "materials": [
    {
      "doubleSided": true,
      "name": "RAMY",
      "normalTexture": {
        "index": 1,
        "scale": 1,
        "texCoord": 0
      },
      "occlusionTexture": {
        "index": 0,
        "strength": 1,
        "texCoord": 0
      },
      "pbrMetallicRoughness": {
        "baseColorFactor": [
          1,
          1,
          1,
          1
        ],
        "baseColorTexture": {
          "index": 2,
          "texCoord": 0
        },
        "metallicFactor": 1,
        "metallicRoughnessTexture": {
          "index": 0,
          "texCoord": 0
        },
        "roughnessFactor": 1
      }
    },
    {
      "doubleSided": true,
      "name": "OBRAZ",
      "normalTexture": {
        "index": 4,
        "scale": 1,
        "texCoord": 0
      },
      "pbrMetallicRoughness": {
        "baseColorFactor": [
          1,
          1,
          1,
          1
        ],
        "baseColorTexture": {
          "index": 5,
          "texCoord": 0
        },
        "metallicFactor": 1,
        "metallicRoughnessTexture": {
          "index": 3,
          "texCoord": 0
        },
        "roughnessFactor": 0.83708079270000002
      }
    }
  ],
  "meshes": [
    {
      "name": "Ramy02_RAMY_0",
      "primitives": [
        {
          "attributes": {
            "NORMAL": 1,
            "POSITION": 0,
            "TANGENT": 2,
            "TEXCOORD_0": 3
          },
          "indices": 4,
          "material": 0,
          "mode": 4
        }
      ]
    },
    {
      "name": "Ramy02_OBRAZ_0",
      "primitives": [
        {
          "attributes": {
            "NORMAL": 6,
            "POSITION": 5,
            "TANGENT": 7,
            "TEXCOORD_0": 8
          },
          "indices": 9,
          "material": 1,
          "mode": 4
        }
      ]
    }
  ],
  "nodes": [
    {
      "children": [
        1
      ],
      "name": "RootNode (gltf orientation matrix)",
      "rotation": [
        -0.70710678118654746,
        -0,
        -0,
        0.70710678118654757
      ]
    },
    {
      "children": [
        2
      ],
      "name": "RootNode (model correction matrix)"
    },
    {
      "children": [
        3
      ],
      "matrix": [
        1,
        0,
        0,
        0,
        0,
        0,
        1,
        0,
        0,
        -1,
        0,
        0,
        0,
        0,
        0,
        1
      ],
      "name": "27793185331b43a19a1d2f5338d20a58.fbx"
    },
    {
      "children": [
        4
      ],
      "name": "RootNode"
    },
    {
      "children": [
        5
      ],
      "matrix": [
        1,
        0,
        0,
        0,
        0,
        2.2204460492503131e-16,
        -1,
        0,
        0,
        1,
        2.2204460492503131e-16,
        0,
        -0.020885735750198364,
        0.066289454698562622,
        0.00051121413707733154,
        1
      ],
      "name": "Ramy02"
    },
    {
      "children": [
        6,
        7
      ],
      "matrix": [
        6.123233995736766e-17,
        0,
        -1,
        0,
        -0,
        1,
        -0,
        0,
        1,
        0,
        6.123233995736766e-17,
        0,
        -4.999898374080658e-05,
        -2.7216362953186035,
        -0.0080193281173706055,
        1
      ],
      "name": ""
    },
    {
      "mesh": 0,
      "name": "Ramy02_RAMY_0"
    },
    {
      "mesh": 1,
      "name": "Ramy02_OBRAZ_0"
    }
  ],
  "samplers": [
    {
      "magFilter": 9729,
      "minFilter": 9987,
      "wrapS": 10497,
      "wrapT": 10497
    }
  ],
  "scene": 0,
  "scenes": [
    {
      "name": "OSG_Scene",
      "nodes": [
        0
      ]
    }
  ],
  "textures": [
    {
      "sampler": 0,
      "source": 0
    },
    {
      "sampler": 0,
      "source": 1
    },
    {
      "sampler": 0,
      "source": 2
    },
    {
      "sampler": 0,
      "source": 3
    },
    {
      "sampler": 0,
      "source": 4
    },
    {
      "sampler": 0,
      "source": 5
    }
  ]
}

