{
  "accessors": [
    {
      "bufferView": 2,
      "componentType": 5126,
      "count": 514,
      "max": [
        19.935691833496094,
        26.045015335083008,
        35.369773864746094
      ],
      "min": [
        -19.935691833496094,
        -26.045015335083008,
        0
      ],
      "type": "VEC3"
    },
    {
      "bufferView": 2,
      "byteOffset": 6168,
      "componentType": 5126,
      "count": 514,
      "max": [
        1,
        1,
        1
      ],
      "min": [
        -1,
        -1,
        -1
      ],
      "type": "VEC3"
    },
    {
      "bufferView": 3,
      "componentType": 5126,
      "count": 514,
      "max": [
        1,
        1,
        1.8974416889250278e-05,
        1
      ],
      "min": [
        -1,
        -1,
        -8.2701308201649226e-06,
        -1
      ],
      "type": "VEC4"
    },
    {
      "bufferView": 1,
      "componentType": 5126,
      "count": 514,
      "max": [
        1,
        1.0159236192703247
      ],
      "min": [
        -0.027777779847383499,
        -5.9604644775390625e-08
      ],
      "type": "VEC2"
    },
    {
      "bufferView": 0,
      "componentType": 5125,
      "count": 564,
      "max": [
        513
      ],
      "min": [
        0
      ],
      "type": "SCALAR"
    },
    {
      "bufferView": 2,
      "byteOffset": 12336,
      "componentType": 5126,
      "count": 63,
      "max": [
        -19.935691833496094,
        26.045015335083008,
        35.369773864746094
      ],
      "min": [
        -19.935691833496094,
        -26.045015335083008,
        0
      ],
      "type": "VEC3"
    },
    {
      "bufferView": 2,
      "byteOffset": 13092,
      "componentType": 5126,
      "count": 63,
      "max": [
        -1,
        0,
        0
      ],
      "min": [
        -1,
        0,
        0
      ],
      "type": "VEC3"
    },
    {
      "bufferView": 3,
      "byteOffset": 8224,
      "componentType": 5126,
      "count": 63,
      "max": [
        0,
        -1,
        9.2641664650727762e-07,
        1
      ],
      "min": [
        0,
        -1,
        -1.1709898899425752e-06,
        1
      ],
      "type": "VEC4"
    },
    {
      "bufferView": 1,
      "byteOffset": 4112,
      "componentType": 5126,
      "count": 63,
      "max": [
        1,
        1
      ],
      "min": [
        0,
        0
      ],
      "type": "VEC2"
    },
    {
      "bufferView": 0,
      "byteOffset": 2256,
      "componentType": 5125,
      "count": 72,
      "max": [
        62
      ],
      "min": [
        0
      ],
      "type": "SCALAR"
    },
    {
      "bufferView": 2,
      "byteOffset": 13848,
      "componentType": 5126,
      "count": 24,
      "max": [
        1.8488740921020508,
        2.2508029937744141,
        0
      ],
      "min": [
        -1.8488740921020508,
        -2.2508029937744141,
        -1.2861738204956055
      ],
      "type": "VEC3"
    },
    {
      "bufferView": 2,
      "byteOffset": 14136,
      "componentType": 5126,
      "count": 24,
      "max": [
        1,
        1,
        1
      ],
      "min": [
        -1,
        -1,
        -1
      ],
      "type": "VEC3"
    },
    {
      "bufferView": 3,
      "byteOffset": 9232,
      "componentType": 5126,
      "count": 24,
      "max": [
        1,
        1,
        0,
        -1
      ],
      "min": [
        -1,
        -1,
        0,
        -1
      ],
      "type": "VEC4"
    },
    {
      "bufferView": 1,
      "byteOffset": 4616,
      "componentType": 5126,
      "count": 24,
      "max": [
        1,
        1
      ],
      "min": [
        0,
        0
      ],
      "type": "VEC2"
    },
    {
      "bufferView": 0,
      "byteOffset": 2544,
      "componentType": 5125,
      "count": 36,
      "max": [
        23
      ],
      "min": [
        0
      ],
      "type": "SCALAR"
    },
    {
      "bufferView": 2,
      "byteOffset": 14424,
      "componentType": 5126,
      "count": 24,
      "max": [
        1.8488740921020508,
        2.2508029937744141,
        0
      ],
      "min": [
        -1.8488740921020508,
        -2.2508029937744141,
        -1.2861738204956055
      ],
      "type": "VEC3"
    },
    {
      "bufferView": 2,
      "byteOffset": 14712,
      "componentType": 5126,
      "count": 24,
      "max": [
        1,
        1,
        1
      ],
      "min": [
        -1,
        -1,
        -1
      ],
      "type": "VEC3"
    },
    {
      "bufferView": 3,
      "byteOffset": 9616,
      "componentType": 5126,
      "count": 24,
      "max": [
        1,
        1,
        0,
        -1
      ],
      "min": [
        -1,
        -1,
        0,
        -1
      ],
      "type": "VEC4"
    },
    {
      "bufferView": 1,
      "byteOffset": 4808,
      "componentType": 5126,
      "count": 24,
      "max": [
        1,
        1
      ],
      "min": [
        0,
        0
      ],
      "type": "VEC2"
    },
    {
      "bufferView": 0,
      "byteOffset": 2688,
      "componentType": 5125,
      "count": 36,
      "max": [
        23
      ],
      "min": [
        0
      ],
      "type": "SCALAR"
    },
    {
      "bufferView": 2,
      "byteOffset": 15000,
      "componentType": 5126,
      "count": 24,
      "max": [
        1.8488740921020508,
        2.2508029937744141,
        0
      ],
      "min": [
        -1.8488740921020508,
        -2.2508029937744141,
        -1.2861738204956055
      ],
      "type": "VEC3"
    },
    {
      "bufferView": 2,
      "byteOffset": 15288,
      "componentType": 5126,
      "count": 24,
      "max": [
        1,
        1,
        1
      ],
      "min": [
        -1,
        -1,
        -1
      ],
      "type": "VEC3"
    },
    {
      "bufferView": 3,
      "byteOffset": 10000,
      "componentType": 5126,
      "count": 24,
      "max": [
        1,
        1,
        0,
        -1
      ],
      "min": [
        -1,
        -1,
        0,
        -1
      ],
      "type": "VEC4"
    },
    {
      "bufferView": 1,
      "byteOffset": 5000,
      "componentType": 5126,
      "count": 24,
      "max": [
        1,
        1
      ],
      "min": [
        0,
        0
      ],
      "type": "VEC2"
    },
    {
      "bufferView": 0,
      "byteOffset": 2832,
      "componentType": 5125,
      "count": 36,
      "max": [
        23
      ],
      "min": [
        0
      ],
      "type": "SCALAR"
    },
    {
      "bufferView": 2,
      "byteOffset": 15576,
      "componentType": 5126,
      "count": 24,
      "max": [
        1.8488740921020508,
        2.2508029937744141,
        0
      ],
      "min": [
        -1.8488740921020508,
        -2.2508029937744141,
        -1.2861738204956055
      ],
      "type": "VEC3"
    },
    {
      "bufferView": 2,
      "byteOffset": 15864,
      "componentType": 5126,
      "count": 24,
      "max": [
        1,
        1,
        1
      ],
      "min": [
        -1,
        -1,
        -1
      ],
      "type": "VEC3"
    },
    {
      "bufferView": 3,
      "byteOffset": 10384,
      "componentType": 5126,
      "count": 24,
      "max": [
        1,
        1,
        0,
        -1
      ],
      "min": [
        -1,
        -1,
        0,
        -1
      ],
      "type": "VEC4"
    },
    {
      "bufferView": 1,
      "byteOffset": 5192,
      "componentType": 5126,
      "count": 24,
      "max": [
        1,
        1
      ],
      "min": [
        0,
        0
      ],
      "type": "VEC2"
    },
    {
      "bufferView": 0,
      "byteOffset": 2976,
      "componentType": 5125,
      "count": 36,
      "max": [
        23
      ],
      "min": [
        0
      ],
      "type": "SCALAR"
    },
    {
      "bufferView": 2,
      "byteOffset": 16152,
      "componentType": 5126,
      "count": 24,
      "max": [
        2.7283856868743896,
        4.0925784111022949,
        12.959833145141602
      ],
      "min": [
        -2.7283856868743896,
        -4.0925784111022949,
        0
      ],
      "type": "VEC3"
    },
    {
      "bufferView": 2,
      "byteOffset": 16440,
      "componentType": 5126,
      "count": 24,
      "max": [
        1,
        1,
        1
      ],
      "min": [
        -1,
        -1,
        -1
      ],
      "type": "VEC3"
    },
    {
      "bufferView": 3,
      "byteOffset": 10768,
      "componentType": 5126,
      "count": 24,
      "max": [
        1,
        1,
        0,
        1
      ],
      "min": [
        -1,
        -1,
        0,
        1
      ],
      "type": "VEC4"
    },
    {
      "bufferView": 1,
      "byteOffset": 5384,
      "componentType": 5126,
      "count": 24,
      "max": [
        1,
        1
      ],
      "min": [
        0,
        0
      ],
      "type": "VEC2"
    },
    {
      "bufferView": 0,
      "byteOffset": 3120,
      "componentType": 5125,
      "count": 36,
      "max": [
        23
      ],
      "min": [
        0
      ],
      "type": "SCALAR"
    },
    {
      "bufferView": 2,
      "byteOffset": 16728,
      "componentType": 5126,
      "count": 290,
      "max": [
        6.8260765075683594,
        6.7223734855651855,
        10.380836486816406
      ],
      "min": [
        -6.8260765075683594,
        -6.7223734855651855,
        0
      ],
      "type": "VEC3"
    },
    {
      "bufferView": 2,
      "byteOffset": 20208,
      "componentType": 5126,
      "count": 290,
      "max": [
        0.97878450155258179,
        0.99388378858566284,
        1
      ],
      "min": [
        -0.97878450155258179,
        -0.99388378858566284,
        -1
      ],
      "type": "VEC3"
    },
    {
      "bufferView": 3,
      "byteOffset": 11152,
      "componentType": 5126,
      "count": 290,
      "max": [
        0.9981505274772644,
        1,
        0,
        1
      ],
      "min": [
        -0.98480778932571411,
        -1,
        0,
        -1
      ],
      "type": "VEC4"
    },
    {
      "bufferView": 1,
      "byteOffset": 5576,
      "componentType": 5126,
      "count": 290,
      "max": [
        0.97222220897674561,
        0.99999994039535522
      ],
      "min": [
        0.027777880430221558,
        0
      ],
      "type": "VEC2"
    },
    {
      "bufferView": 0,
      "byteOffset": 3264,
      "componentType": 5125,
      "count": 312,
      "max": [
        289
      ],
      "min": [
        0
      ],
      "type": "SCALAR"
    },
    {
      "bufferView": 2,
      "byteOffset": 23688,
      "componentType": 5126,
      "count": 108,
      "max": [
        6.8260765075683594,
        6.7223734855651855,
        6.9235162734985352
      ],
      "min": [
        -6.8260765075683594,
        -6.7223734855651855,
        0
      ],
      "type": "VEC3"
    },
    {
      "bufferView": 2,
      "byteOffset": 24984,
      "componentType": 5126,
      "count": 108,
      "max": [
        1,
        0.98480784893035889,
        0
      ],
      "min": [
        -1,
        -0.98480790853500366,
        0
      ],
      "type": "VEC3"
    },
    {
      "bufferView": 3,
      "byteOffset": 15792,
      "componentType": 5126,
      "count": 108,
      "max": [
        0.9981505274772644,
        1,
        0,
        1
      ],
      "min": [
        0,
        -1,
        0,
        -1
      ],
      "type": "VEC4"
    },
    {
      "bufferView": 1,
      "byteOffset": 7896,
      "componentType": 5126,
      "count": 108,
      "max": [
        0.97222220897674561,
        0.99999994039535522
      ],
      "min": [
        -0.027777791023254395,
        0
      ],
      "type": "VEC2"
    },
    {
      "bufferView": 0,
      "byteOffset": 4512,
      "componentType": 5125,
      "count": 108,
      "max": [
        107
      ],
      "min": [
        0
      ],
      "type": "SCALAR"
    }
  ],
  "asset": {
    "extras": {
      "author": "ChelseaM (https://sketchfab.com/ChelseaM)",
      "license": "CC-BY-4.0 (http://creativecommons.org/licenses/by/4.0/)",
      "source": "https://sketchfab.com/models/b002e5f720074145a522099542c02f1b",
      "title": "Projector"
    },
    "generator": "Sketchfab-3.20.7",
    "version": "2.0"
  },
  "bufferViews": [
    {
      "buffer": 0,
      "byteLength": 4944,
      "byteOffset": 0,
      "name": "floatBufferViews",
      "target": 34963
    },
    {
      "buffer": 0,
      "byteLength": 8760,
      "byteOffset": 4944,
      "byteStride": 8,
      "name": "floatBufferViews",
      "target": 34962
    },
    {
      "buffer": 0,
      "byteLength": 26280,
      "byteOffset": 13704,
      "byteStride": 12,
      "name": "floatBufferViews",
      "target": 34962
    },
    {
      "buffer": 0,
      "byteLength": 17520,
      "byteOffset": 39984,
      "byteStride": 16,
      "name": "floatBufferViews",
      "target": 34962
    }
  ],
  "buffers": [
    {
      "byteLength": 57504,
      "uri": "scene.bin"
    }
  ],
  "images": [
    {
      "uri": "textures/02_-_Default_baseColor.jpeg"
    },
    {
      "uri": "textures/08_-_Default_baseColor.jpeg"
    },
    {
      "uri": "textures/07_-_Default_baseColor.jpeg"
    },
    {
      "uri": "textures/01_-_Default_baseColor.jpeg"
    }
  ],
  "materials": [
    {
      "doubleSided": true,
      "emissiveFactor": [
        0,
        0,
        0
      ],
      "name": "07_-_Default",
      "pbrMetallicRoughness": {
        "baseColorFactor": [
          1,
          1,
          1,
          1
        ],
        "baseColorTexture": {
          "index": 2,
          "texCoord": 0
        },
        "metallicFactor": 0,
        "roughnessFactor": 0.89297135959999996
      }
    },
    {
      "doubleSided": true,
      "emissiveFactor": [
        0,
        0,
        0
      ],
      "name": "02_-_Default",
      "pbrMetallicRoughness": {
        "baseColorFactor": [
          1,
          1,
          1,
          1
        ],
        "baseColorTexture": {
          "index": 0,
          "texCoord": 0
        },
        "metallicFactor": 0,
        "roughnessFactor": 0.89297135959999996
      }
    },
    {
      "doubleSided": true,
      "emissiveFactor": [
        0,
        0,
        0
      ],
      "name": "08_-_Default",
      "pbrMetallicRoughness": {
        "baseColorFactor": [
          1,
          1,
          1,
          1
        ],
        "baseColorTexture": {
          "index": 1,
          "texCoord": 0
        },
        "metallicFactor": 0,
        "roughnessFactor": 0.89297135959999996
      }
    },
    {
      "doubleSided": true,
      "emissiveFactor": [
        0,
        0,
        0
      ],
      "name": "01_-_Default",
      "pbrMetallicRoughness": {
        "baseColorFactor": [
          1,
          1,
          1,
          1
        ],
        "baseColorTexture": {
          "index": 3,
          "texCoord": 0
        },
        "metallicFactor": 0,
        "roughnessFactor": 0.89297135959999996
      }
    }
  ],
  "meshes": [
    {
      "name": "Box001_07 - Default_0",
      "primitives": [
        {
          "attributes": {
            "NORMAL": 1,
            "POSITION": 0,
            "TANGENT": 2,
            "TEXCOORD_0": 3
          },
          "indices": 4,
          "material": 0,
          "mode": 4
        }
      ]
    },
    {
      "name": "Box001_02 - Default_0",
      "primitives": [
        {
          "attributes": {
            "NORMAL": 6,
            "POSITION": 5,
            "TANGENT": 7,
            "TEXCOORD_0": 8
          },
          "indices": 9,
          "material": 1,
          "mode": 4
        }
      ]
    },
    {
      "name": "Box002_08 - Default_0",
      "primitives": [
        {
          "attributes": {
            "NORMAL": 11,
            "POSITION": 10,
            "TANGENT": 12,
            "TEXCOORD_0": 13
          },
          "indices": 14,
          "material": 2,
          "mode": 4
        }
      ]
    },
    {
      "name": "Box003_08 - Default_0",
      "primitives": [
        {
          "attributes": {
            "NORMAL": 16,
            "POSITION": 15,
            "TANGENT": 17,
            "TEXCOORD_0": 18
          },
          "indices": 19,
          "material": 2,
          "mode": 4
        }
      ]
    },
    {
      "name": "Box004_08 - Default_0",
      "primitives": [
        {
          "attributes": {
            "NORMAL": 21,
            "POSITION": 20,
            "TANGENT": 22,
            "TEXCOORD_0": 23
          },
          "indices": 24,
          "material": 2,
          "mode": 4
        }
      ]
    },
    {
      "name": "Box005_08 - Default_0",
      "primitives": [
        {
          "attributes": {
            "NORMAL": 26,
            "POSITION": 25,
            "TANGENT": 27,
            "TEXCOORD_0": 28
          },
          "indices": 29,
          "material": 2,
          "mode": 4
        }
      ]
    },
    {
      "name": "Box006_08 - Default_0",
      "primitives": [
        {
          "attributes": {
            "NORMAL": 31,
            "POSITION": 30,
            "TANGENT": 32,
            "TEXCOORD_0": 33
          },
          "indices": 34,
          "material": 2,
          "mode": 4
        }
      ]
    },
    {
      "name": "Cylinder001_01 - Default_0",
      "primitives": [
        {
          "attributes": {
            "NORMAL": 36,
            "POSITION": 35,
            "TANGENT": 37,
            "TEXCOORD_0": 38
          },
          "indices": 39,
          "material": 3,
          "mode": 4
        }
      ]
    },
    {
      "name": "Cylinder001_07 - Default_0",
      "primitives": [
        {
          "attributes": {
            "NORMAL": 41,
            "POSITION": 40,
            "TANGENT": 42,
            "TEXCOORD_0": 43
          },
          "indices": 44,
          "material": 0,
          "mode": 4
        }
      ]
    }
  ],
  "nodes": [
    {
      "children": [
        1
      ],
      "name": "RootNode (gltf orientation matrix)",
      "rotation": [
        -0.70710678118654746,
        -0,
        -0,
        0.70710678118654757
      ]
    },
    {
      "children": [
        2
      ],
      "name": "RootNode (model correction matrix)"
    },
    {
      "children": [
        3
      ],
      "matrix": [
        1,
        0,
        0,
        0,
        0,
        0,
        1,
        0,
        0,
        -1,
        0,
        0,
        0,
        0,
        0,
        1
      ],
      "name": "b4b8950acb8642328cf2e731ed936e2c.fbx"
    },
    {
      "children": [
        4
      ],
      "name": "RootNode"
    },
    {
      "children": [
        5,
        8,
        10,
        12,
        14,
        16,
        18
      ],
      "matrix": [
        1,
        0,
        0,
        0,
        0,
        2.2204460492503131e-16,
        -1,
        0,
        0,
        1,
        2.2204460492503131e-16,
        0,
        -7.3954982757568359,
        15.543058395385742,
        8.0373954772949219,
        1
      ],
      "name": "Projector"
    },
    {
      "children": [
        6,
        7
      ],
      "matrix": [
        1,
        0,
        0,
        0,
        0,
        1,
        0,
        0,
        0,
        0,
        0.5460541844367981,
        0,
        -9.5367431640625e-07,
        3.5357875823974609,
        -15.543058395385742,
        1
      ],
      "name": "Box001"
    },
    {
      "mesh": 0,
      "name": "Box001_07 - Default_0"
    },
    {
      "mesh": 1,
      "name": "Box001_02 - Default_0"
    },
    {
      "children": [
        9
      ],
      "matrix": [
        1,
        0,
        0,
        0,
        0,
        1,
        0,
        0,
        0,
        0,
        1,
        0,
        -14.065488815307617,
        -11.467241287231445,
        -15.543058395385742,
        1
      ],
      "name": "Box002"
    },
    {
      "mesh": 2,
      "name": "Box002_08 - Default_0"
    },
    {
      "children": [
        11
      ],
      "matrix": [
        1,
        0,
        0,
        0,
        0,
        1,
        0,
        0,
        0,
        0,
        1,
        0,
        13.441339492797852,
        -11.467241287231445,
        -15.543058395385742,
        1
      ],
      "name": "Box003"
    },
    {
      "mesh": 3,
      "name": "Box003_08 - Default_0"
    },
    {
      "children": [
        13
      ],
      "matrix": [
        1,
        0,
        0,
        0,
        0,
        1,
        0,
        0,
        0,
        0,
        1,
        0,
        -14.065488815307617,
        19.90971565246582,
        -15.543058395385742,
        1
      ],
      "name": "Box004"
    },
    {
      "mesh": 4,
      "name": "Box004_08 - Default_0"
    },
    {
      "children": [
        15
      ],
      "matrix": [
        1,
        0,
        0,
        0,
        0,
        1,
        0,
        0,
        0,
        0,
        1,
        0,
        13.441339492797852,
        19.748943328857422,
        -15.543058395385742,
        1
      ],
      "name": "Box005"
    },
    {
      "mesh": 5,
      "name": "Box005_08 - Default_0"
    },
    {
      "children": [
        17
      ],
      "matrix": [
        1,
        0,
        0,
        0,
        0,
        1,
        0,
        0,
        0,
        0,
        1,
        0,
        1.5278129577636719,
        3.3676242828369141,
        3.8694000244140625,
        1
      ],
      "name": "Box006"
    },
    {
      "mesh": 6,
      "name": "Box006_08 - Default_0"
    },
    {
      "children": [
        19,
        20
      ],
      "matrix": [
        1,
        0,
        0,
        0,
        0,
        -1.6292068472090193e-07,
        0.99999999999998679,
        0,
        0,
        -0.99999999999998679,
        -1.6292068472090193e-07,
        0,
        0.37043857574462891,
        -19.199966430664062,
        -5.3841915130615234,
        1
      ],
      "name": "Cylinder001"
    },
    {
      "mesh": 7,
      "name": "Cylinder001_01 - Default_0"
    },
    {
      "mesh": 8,
      "name": "Cylinder001_07 - Default_0"
    }
  ],
  "samplers": [
    {
      "magFilter": 9729,
      "minFilter": 9987,
      "wrapS": 10497,
      "wrapT": 10497
    }
  ],
  "scene": 0,
  "scenes": [
    {
      "name": "OSG_Scene",
      "nodes": [
        0
      ]
    }
  ],
  "textures": [
    {
      "sampler": 0,
      "source": 0
    },
    {
      "sampler": 0,
      "source": 1
    },
    {
      "sampler": 0,
      "source": 2
    },
    {
      "sampler": 0,
      "source": 3
    }
  ]
}

