{
  "accessors": [
    {
      "bufferView": 2,
      "componentType": 5126,
      "count": 8548,
      "max": [
        2.0397367477416992,
        1.0454807281494141,
        3.5309998989105225
      ],
      "min": [
        -1.4917894601821899,
        -1.0277163982391357,
        0.010999999940395355
      ],
      "type": "VEC3"
    },
    {
      "bufferView": 2,
      "byteOffset": 102576,
      "componentType": 5126,
      "count": 8548,
      "max": [
        1,
        1,
        1
      ],
      "min": [
        -1,
        -1,
        -1
      ],
      "type": "VEC3"
    },
    {
      "bufferView": 3,
      "componentType": 5126,
      "count": 8548,
      "max": [
        1,
        1,
        0.99998968839645386,
        1
      ],
      "min": [
        -1,
        -1,
        -1,
        1
      ],
      "type": "VEC4"
    },
    {
      "bufferView": 1,
      "componentType": 5126,
      "count": 8548,
      "max": [
        0.99693167209625244,
        0.98353040218353271
      ],
      "min": [
        0.0046328147873282433,
        0.010763590224087238
      ],
      "type": "VEC2"
    },
    {
      "bufferView": 0,
      "componentType": 5125,
      "count": 39912,
      "max": [
        8547
      ],
      "min": [
        0
      ],
      "type": "SCALAR"
    },
    {
      "bufferView": 2,
      "byteOffset": 205152,
      "componentType": 5126,
      "count": 3514,
      "max": [
        1.8052401542663574,
        1.0777103900909424,
        3.07041335105896
      ],
      "min": [
        -1.4753987789154053,
        -0.36000001430511475,
        0.010999999940395355
      ],
      "type": "VEC3"
    },
    {
      "bufferView": 2,
      "byteOffset": 247320,
      "componentType": 5126,
      "count": 3514,
      "max": [
        1,
        0.99239218235015869,
        1
      ],
      "min": [
        -1,
        -0.99786710739135742,
        -1
      ],
      "type": "VEC3"
    },
    {
      "bufferView": 3,
      "byteOffset": 136768,
      "componentType": 5126,
      "count": 3514,
      "max": [
        1,
        1,
        1,
        1
      ],
      "min": [
        -1,
        -1,
        -1,
        1
      ],
      "type": "VEC4"
    },
    {
      "bufferView": 1,
      "byteOffset": 68384,
      "componentType": 5126,
      "count": 3514,
      "max": [
        0.99651658535003662,
        0.92818754911422729
      ],
      "min": [
        0.0052222125232219696,
        0.012212648987770081
      ],
      "type": "VEC2"
    },
    {
      "bufferView": 0,
      "byteOffset": 159648,
      "componentType": 5125,
      "count": 15132,
      "max": [
        3513
      ],
      "min": [
        0
      ],
      "type": "SCALAR"
    },
    {
      "bufferView": 2,
      "byteOffset": 289488,
      "componentType": 5126,
      "count": 6018,
      "max": [
        1.8647584915161133,
        0.78352195024490356,
        2.9669535160064697
      ],
      "min": [
        -1.9531999826431274,
        -0.78352195024490356,
        0.24964651465415955
      ],
      "type": "VEC3"
    },
    {
      "bufferView": 2,
      "byteOffset": 361704,
      "componentType": 5126,
      "count": 6018,
      "max": [
        1,
        1,
        1
      ],
      "min": [
        -1,
        -1,
        -1
      ],
      "type": "VEC3"
    },
    {
      "bufferView": 3,
      "byteOffset": 192992,
      "componentType": 5126,
      "count": 6018,
      "max": [
        1,
        1,
        0.42946347594261169,
        1
      ],
      "min": [
        -1,
        -1,
        -0.42946347594261169,
        1
      ],
      "type": "VEC4"
    },
    {
      "bufferView": 1,
      "byteOffset": 96496,
      "componentType": 5126,
      "count": 6018,
      "max": [
        0.99000000953674316,
        0.99599999189376831
      ],
      "min": [
        0.011715761385858059,
        0.011220904998481274
      ],
      "type": "VEC2"
    },
    {
      "bufferView": 0,
      "byteOffset": 220176,
      "componentType": 5125,
      "count": 32256,
      "max": [
        6017
      ],
      "min": [
        0
      ],
      "type": "SCALAR"
    },
    {
      "bufferView": 2,
      "byteOffset": 433920,
      "componentType": 5126,
      "count": 1269,
      "max": [
        3.9000000953674316,
        1.5,
        1.7133786678314209
      ],
      "min": [
        -3.9000000953674316,
        -1.5,
        0
      ],
      "type": "VEC3"
    },
    {
      "bufferView": 2,
      "byteOffset": 449148,
      "componentType": 5126,
      "count": 1269,
      "max": [
        0.99715405702590942,
        0.99715405702590942,
        1
      ],
      "min": [
        -0.99715405702590942,
        -0.99715405702590942,
        -1
      ],
      "type": "VEC3"
    },
    {
      "bufferView": 3,
      "byteOffset": 289280,
      "componentType": 5126,
      "count": 1269,
      "max": [
        1,
        1,
        0.95583385229110718,
        1
      ],
      "min": [
        -1,
        -1,
        -0.95583397150039673,
        1
      ],
      "type": "VEC4"
    },
    {
      "bufferView": 1,
      "byteOffset": 144640,
      "componentType": 5126,
      "count": 1269,
      "max": [
        0.99486225843429565,
        0.98124516010284424
      ],
      "min": [
        0.0051377573981881142,
        0.016329187899827957
      ],
      "type": "VEC2"
    },
    {
      "bufferView": 0,
      "byteOffset": 349200,
      "componentType": 5125,
      "count": 6726,
      "max": [
        1268
      ],
      "min": [
        0
      ],
      "type": "SCALAR"
    }
  ],
  "asset": {
    "extras": {
      "author": "Canary Games (https://sketchfab.com/CapAlatriste)",
      "license": "CC-BY-4.0 (http://creativecommons.org/licenses/by/4.0/)",
      "source": "https://sketchfab.com/3d-models/3-chemistry-dangerous-3december2019-6a6dcd9617d74a3c958399500ff8c9b7",
      "title": "#3 Chemistry Dangerous - 3December2019"
    },
    "generator": "Sketchfab-7.4.0",
    "version": "2.0"
  },
  "bufferViews": [
    {
      "buffer": 0,
      "byteLength": 376104,
      "byteOffset": 0,
      "name": "floatBufferViews",
      "target": 34963
    },
    {
      "buffer": 0,
      "byteLength": 154792,
      "byteOffset": 376104,
      "byteStride": 8,
      "name": "floatBufferViews",
      "target": 34962
    },
    {
      "buffer": 0,
      "byteLength": 464376,
      "byteOffset": 530896,
      "byteStride": 12,
      "name": "floatBufferViews",
      "target": 34962
    },
    {
      "buffer": 0,
      "byteLength": 309584,
      "byteOffset": 995272,
      "byteStride": 16,
      "name": "floatBufferViews",
      "target": 34962
    }
  ],
  "buffers": [
    {
      "byteLength": 1304856,
      "uri": "scene.bin"
    }
  ],
  "images": [
    {
      "uri": "textures/Chemistry_baseColor.png"
    },
    {
      "uri": "textures/Chemistry_metallicRoughness.png"
    },
    {
      "uri": "textures/Chemistry_emissive.png"
    },
    {
      "uri": "textures/Chemistry_normal.png"
    },
    {
      "uri": "textures/Chemistry_Glass_baseColor.png"
    },
    {
      "uri": "textures/Chemistry_Glass_metallicRoughness.png"
    },
    {
      "uri": "textures/Chemistry_Glass_normal.png"
    },
    {
      "uri": "textures/Liquid_Table_baseColor.png"
    },
    {
      "uri": "textures/Liquid_Table_metallicRoughness.png"
    },
    {
      "uri": "textures/Liquid_Table_normal.png"
    }
  ],
  "materials": [
    {
      "alphaMode": "BLEND",
      "doubleSided": true,
      "emissiveFactor": [
        1,
        1,
        1
      ],
      "emissiveTexture": {
        "index": 2,
        "texCoord": 0
      },
      "name": "Chemistry",
      "normalTexture": {
        "index": 3,
        "scale": 1,
        "texCoord": 0
      },
      "occlusionTexture": {
        "index": 1,
        "strength": 1,
        "texCoord": 0
      },
      "pbrMetallicRoughness": {
        "baseColorFactor": [
          1,
          1,
          1,
          1
        ],
        "baseColorTexture": {
          "index": 0,
          "texCoord": 0
        },
        "metallicFactor": 1,
        "metallicRoughnessTexture": {
          "index": 1,
          "texCoord": 0
        },
        "roughnessFactor": 1
      }
    },
    {
      "alphaMode": "BLEND",
      "doubleSided": false,
      "name": "Chemistry_Glass",
      "normalTexture": {
        "index": 6,
        "scale": 1,
        "texCoord": 0
      },
      "occlusionTexture": {
        "index": 5,
        "strength": 1,
        "texCoord": 0
      },
      "pbrMetallicRoughness": {
        "baseColorFactor": [
          1,
          1,
          1,
          1
        ],
        "baseColorTexture": {
          "index": 4,
          "texCoord": 0
        },
        "metallicFactor": 1,
        "metallicRoughnessTexture": {
          "index": 5,
          "texCoord": 0
        },
        "roughnessFactor": 1
      }
    },
    {
      "alphaMode": "BLEND",
      "doubleSided": true,
      "name": "Liquid_Table",
      "normalTexture": {
        "index": 9,
        "scale": 1,
        "texCoord": 0
      },
      "occlusionTexture": {
        "index": 8,
        "strength": 1,
        "texCoord": 0
      },
      "pbrMetallicRoughness": {
        "baseColorFactor": [
          1,
          1,
          1,
          1
        ],
        "baseColorTexture": {
          "index": 7,
          "texCoord": 0
        },
        "metallicFactor": 1,
        "metallicRoughnessTexture": {
          "index": 8,
          "texCoord": 0
        },
        "roughnessFactor": 1
      }
    }
  ],
  "meshes": [
    {
      "primitives": [
        {
          "attributes": {
            "NORMAL": 1,
            "POSITION": 0,
            "TANGENT": 2,
            "TEXCOORD_0": 3
          },
          "indices": 4,
          "material": 0,
          "mode": 4
        }
      ]
    },
    {
      "primitives": [
        {
          "attributes": {
            "NORMAL": 6,
            "POSITION": 5,
            "TANGENT": 7,
            "TEXCOORD_0": 8
          },
          "indices": 9,
          "material": 0,
          "mode": 4
        }
      ]
    },
    {
      "primitives": [
        {
          "attributes": {
            "NORMAL": 11,
            "POSITION": 10,
            "TANGENT": 12,
            "TEXCOORD_0": 13
          },
          "indices": 14,
          "material": 1,
          "mode": 4
        }
      ]
    },
    {
      "primitives": [
        {
          "attributes": {
            "NORMAL": 16,
            "POSITION": 15,
            "TANGENT": 17,
            "TEXCOORD_0": 18
          },
          "indices": 19,
          "material": 2,
          "mode": 4
        }
      ]
    }
  ],
  "nodes": [
    {
      "children": [
        1
      ],
      "name": "RootNode (gltf orientation matrix)",
      "rotation": [
        -0.70710678118654746,
        -0,
        -0,
        0.70710678118654757
      ]
    },
    {
      "children": [
        2
      ],
      "name": "RootNode (model correction matrix)"
    },
    {
      "children": [
        3,
        4,
        5,
        6
      ],
      "name": "Chemistry.obj.cleaner.materialmerger.gles"
    },
    {
      "mesh": 0,
      "name": ""
    },
    {
      "mesh": 1,
      "name": ""
    },
    {
      "mesh": 2,
      "name": ""
    },
    {
      "mesh": 3,
      "name": ""
    }
  ],
  "samplers": [
    {
      "magFilter": 9729,
      "minFilter": 9987,
      "wrapS": 10497,
      "wrapT": 10497
    }
  ],
  "scene": 0,
  "scenes": [
    {
      "name": "OSG_Scene",
      "nodes": [
        0
      ]
    }
  ],
  "textures": [
    {
      "sampler": 0,
      "source": 0
    },
    {
      "sampler": 0,
      "source": 1
    },
    {
      "sampler": 0,
      "source": 2
    },
    {
      "sampler": 0,
      "source": 3
    },
    {
      "sampler": 0,
      "source": 4
    },
    {
      "sampler": 0,
      "source": 5
    },
    {
      "sampler": 0,
      "source": 6
    },
    {
      "sampler": 0,
      "source": 7
    },
    {
      "sampler": 0,
      "source": 8
    },
    {
      "sampler": 0,
      "source": 9
    }
  ]
}

