{
  "accessors": [
    {
      "bufferView": 2,
      "componentType": 5126,
      "count": 4,
      "max": [
        0.5,
        0.5,
        3.5616362636936572e-10
      ],
      "min": [
        -0.49185192584991455,
        -0.7586512565612793,
        0
      ],
      "type": "VEC3"
    },
    {
      "bufferView": 2,
      "byteOffset": 48,
      "componentType": 5126,
      "count": 4,
      "max": [
        -3.5908950812846285e-10,
        0,
        -1
      ],
      "min": [
        -3.5908950812846285e-10,
        0,
        -1
      ],
      "type": "VEC3"
    },
    {
      "bufferView": 3,
      "componentType": 5126,
      "count": 4,
      "max": [
        1,
        0,
        -3.5908950812846285e-10,
        -1
      ],
      "min": [
        1,
        0,
        -3.5908950812846285e-10,
        -1
      ],
      "type": "VEC4"
    },
    {
      "bufferView": 1,
      "componentType": 5126,
      "count": 4,
      "max": [
        0.037823174148797989,
        0.99290341138839722
      ],
      "min": [
        0.012759286910295486,
        0.96783953905105591
      ],
      "type": "VEC2"
    },
    {
      "bufferView": 0,
      "componentType": 5125,
      "count": 6,
      "max": [
        3
      ],
      "min": [
        0
      ],
      "type": "SCALAR"
    },
    {
      "bufferView": 2,
      "byteOffset": 96,
      "componentType": 5126,
      "count": 96,
      "max": [
        0.06027921661734581,
        -2.3077023029327393,
        1.4939961433410645
      ],
      "min": [
        -0.03972124308347702,
        -3.4995543956756592,
        0.035345021635293961
      ],
      "type": "VEC3"
    },
    {
      "bufferView": 2,
      "byteOffset": 1248,
      "componentType": 5126,
      "count": 96,
      "max": [
        0.97606462240219116,
        0.95763742923736572,
        0.9576374888420105
      ],
      "min": [
        -0.83205026388168335,
        -0.9576374888420105,
        -0.95763754844665527
      ],
      "type": "VEC3"
    },
    {
      "bufferView": 3,
      "byteOffset": 64,
      "componentType": 5126,
      "count": 96,
      "max": [
        0.89442765712738037,
        0.97606301307678223,
        0.97606450319290161,
        1
      ],
      "min": [
        -0.9576374888420105,
        -0.97606313228607178,
        -0.97606444358825684,
        1
      ],
      "type": "VEC4"
    },
    {
      "bufferView": 1,
      "byteOffset": 32,
      "componentType": 5126,
      "count": 96,
      "max": [
        0.84257549047470093,
        0.95054805278778076
      ],
      "min": [
        0.60551047325134277,
        0.027369828894734383
      ],
      "type": "VEC2"
    },
    {
      "bufferView": 0,
      "byteOffset": 24,
      "componentType": 5125,
      "count": 264,
      "max": [
        95
      ],
      "min": [
        0
      ],
      "type": "SCALAR"
    },
    {
      "bufferView": 2,
      "byteOffset": 2400,
      "componentType": 5126,
      "count": 4,
      "max": [
        -0.038201093673706055,
        -2.4077022075653076,
        1.3939957618713379
      ],
      "min": [
        -0.038201093673706055,
        -3.3995540142059326,
        0.135345458984375
      ],
      "type": "VEC3"
    },
    {
      "bufferView": 2,
      "byteOffset": 2448,
      "componentType": 5126,
      "count": 4,
      "max": [
        1,
        0,
        0
      ],
      "min": [
        1,
        0,
        0
      ],
      "type": "VEC3"
    },
    {
      "bufferView": 3,
      "byteOffset": 1600,
      "componentType": 5126,
      "count": 4,
      "max": [
        0,
        -1.8788053068874433e-07,
        1,
        1
      ],
      "min": [
        0,
        -1.8942402846278128e-07,
        1,
        1
      ],
      "type": "VEC4"
    },
    {
      "bufferView": 1,
      "byteOffset": 800,
      "componentType": 5126,
      "count": 4,
      "max": [
        1.0000002384185791,
        1.0000001192092896
      ],
      "min": [
        -1.1920928955078125e-07,
        -1.1920928955078125e-07
      ],
      "type": "VEC2"
    },
    {
      "bufferView": 0,
      "byteOffset": 1080,
      "componentType": 5125,
      "count": 6,
      "max": [
        3
      ],
      "min": [
        0
      ],
      "type": "SCALAR"
    },
    {
      "bufferView": 2,
      "byteOffset": 2496,
      "componentType": 5126,
      "count": 1089,
      "max": [
        0.017427872866392136,
        -2.4077081680297852,
        1.3928484916687012
      ],
      "min": [
        -0.057465076446533203,
        -3.3995599746704102,
        0.13419830799102783
      ],
      "type": "VEC3"
    },
    {
      "bufferView": 2,
      "byteOffset": 15564,
      "componentType": 5126,
      "count": 1089,
      "max": [
        0.99999427795410156,
        0.5122988224029541,
        0.43083688616752625
      ],
      "min": [
        0.85879552364349365,
        -0.46805101633071899,
        -0.43932917714118958
      ],
      "type": "VEC3"
    },
    {
      "bufferView": 3,
      "byteOffset": 1664,
      "componentType": 5126,
      "count": 1089,
      "max": [
        0.43933963775634766,
        0.13798826932907104,
        0.99999988079071045,
        1
      ],
      "min": [
        -0.42881596088409424,
        -0.086006075143814087,
        0.89817506074905396,
        1
      ],
      "type": "VEC4"
    },
    {
      "bufferView": 1,
      "byteOffset": 832,
      "componentType": 5126,
      "count": 1089,
      "max": [
        1.0000002384185791,
        1.0000001192092896
      ],
      "min": [
        -1.4288728777955839e-07,
        -1.1920928955078125e-07
      ],
      "type": "VEC2"
    },
    {
      "bufferView": 0,
      "byteOffset": 1104,
      "componentType": 5125,
      "count": 6144,
      "max": [
        1088
      ],
      "min": [
        0
      ],
      "type": "SCALAR"
    }
  ],
  "asset": {
    "extras": {
      "author": "SebastianSosnowski (https://sketchfab.com/SebastianSosnowski)",
      "license": "CC-BY-4.0 (http://creativecommons.org/licenses/by/4.0/)",
      "source": "https://sketchfab.com/3d-models/painting-by-zdzislaw-beksinski-2-da5bab909570476b951be08d6a9eecdc",
      "title": "Painting by Zdzislaw Beksinski (2)"
    },
    "generator": "Sketchfab-4.34.0",
    "version": "2.0"
  },
  "bufferViews": [
    {
      "buffer": 0,
      "byteLength": 25680,
      "byteOffset": 0,
      "name": "floatBufferViews",
      "target": 34963
    },
    {
      "buffer": 0,
      "byteLength": 9544,
      "byteOffset": 25680,
      "byteStride": 8,
      "name": "floatBufferViews",
      "target": 34962
    },
    {
      "buffer": 0,
      "byteLength": 28632,
      "byteOffset": 35224,
      "byteStride": 12,
      "name": "floatBufferViews",
      "target": 34962
    },
    {
      "buffer": 0,
      "byteLength": 19088,
      "byteOffset": 63856,
      "byteStride": 16,
      "name": "floatBufferViews",
      "target": 34962
    }
  ],
  "buffers": [
    {
      "byteLength": 82944,
      "uri": "scene.bin"
    }
  ],
  "images": [
    {
      "uri": "textures/OBRAZ_baseColor.jpeg"
    },
    {
      "uri": "textures/OBRAZ_normal.png"
    },
    {
      "uri": "textures/RAMY_metallicRoughness.png"
    },
    {
      "uri": "textures/RAMY_baseColor.jpeg"
    },
    {
      "uri": "textures/RAMY_normal.png"
    }
  ],
  "materials": [
    {
      "doubleSided": false,
      "name": "RAMY",
      "normalTexture": {
        "index": 4,
        "scale": 1,
        "texCoord": 0
      },
      "occlusionTexture": {
        "index": 2,
        "strength": 1,
        "texCoord": 0
      },
      "pbrMetallicRoughness": {
        "baseColorFactor": [
          1,
          1,
          1,
          1
        ],
        "baseColorTexture": {
          "index": 3,
          "texCoord": 0
        },
        "metallicFactor": 1,
        "metallicRoughnessTexture": {
          "index": 2,
          "texCoord": 0
        },
        "roughnessFactor": 1
      }
    },
    {
      "doubleSided": false,
      "name": "OBRAZ",
      "normalTexture": {
        "index": 1,
        "scale": 1,
        "texCoord": 0
      },
      "pbrMetallicRoughness": {
        "baseColorFactor": [
          1,
          1,
          1,
          1
        ],
        "baseColorTexture": {
          "index": 0,
          "texCoord": 0
        },
        "metallicFactor": 0,
        "roughnessFactor": 0.45293445119999998
      }
    },
    {
      "alphaMode": "BLEND",
      "doubleSided": false,
      "name": "Material_89",
      "pbrMetallicRoughness": {
        "baseColorFactor": [
          0,
          0,
          0,
          0
        ],
        "metallicFactor": 0,
        "roughnessFactor": 1
      }
    }
  ],
  "meshes": [
    {
      "name": "TylObrazu_RAMY_0",
      "primitives": [
        {
          "attributes": {
            "NORMAL": 1,
            "POSITION": 0,
            "TANGENT": 2,
            "TEXCOORD_0": 3
          },
          "indices": 4,
          "material": 0,
          "mode": 4
        }
      ]
    },
    {
      "name": "Object003_RAMY_0",
      "primitives": [
        {
          "attributes": {
            "NORMAL": 6,
            "POSITION": 5,
            "TANGENT": 7,
            "TEXCOORD_0": 8
          },
          "indices": 9,
          "material": 0,
          "mode": 4
        }
      ]
    },
    {
      "name": "Object003_OBRAZ_0",
      "primitives": [
        {
          "attributes": {
            "NORMAL": 11,
            "POSITION": 10,
            "TANGENT": 12,
            "TEXCOORD_0": 13
          },
          "indices": 14,
          "material": 1,
          "mode": 4
        }
      ]
    },
    {
      "name": "Object004_Material #89_0",
      "primitives": [
        {
          "attributes": {
            "NORMAL": 16,
            "POSITION": 15,
            "TANGENT": 17,
            "TEXCOORD_0": 18
          },
          "indices": 19,
          "material": 2,
          "mode": 4
        }
      ]
    }
  ],
  "nodes": [
    {
      "children": [
        1
      ],
      "name": "RootNode (gltf orientation matrix)",
      "rotation": [
        -0.70710678118654746,
        -0,
        -0,
        0.70710678118654757
      ]
    },
    {
      "children": [
        2
      ],
      "name": "RootNode (model correction matrix)"
    },
    {
      "children": [
        3
      ],
      "matrix": [
        1,
        0,
        0,
        0,
        0,
        0,
        1,
        0,
        0,
        -1,
        0,
        0,
        0,
        0,
        0,
        1
      ],
      "name": "e34675b3b4a846d58780087d81752ed6.fbx"
    },
    {
      "children": [
        4,
        6,
        10
      ],
      "name": "RootNode"
    },
    {
      "children": [
        5
      ],
      "matrix": [
        4.3711388286737929e-08,
        -0.99999999999999911,
        0,
        0,
        0,
        0,
        -1,
        0,
        0.99999999999999911,
        4.3711388286737929e-08,
        0,
        0,
        5.9604644775390625e-07,
        0.0040737390518188477,
        -0.12932503223419189,
        1
      ],
      "name": "TylObrazu"
    },
    {
      "mesh": 0,
      "name": "TylObrazu_RAMY_0"
    },
    {
      "children": [
        7
      ],
      "matrix": [
        1,
        0,
        0,
        0,
        0,
        2.2204460492503131e-16,
        -1,
        0,
        0,
        1,
        2.2204460492503131e-16,
        0,
        0,
        0,
        0,
        1
      ],
      "name": "Object003"
    },
    {
      "children": [
        8,
        9
      ],
      "matrix": [
        1,
        0,
        0,
        0,
        0,
        6.123233995736766e-17,
        -1,
        0,
        -0,
        1,
        6.123233995736766e-17,
        0,
        0.039721205830574036,
        -0.76467084884643555,
        -2.9036283493041992,
        1
      ],
      "name": ""
    },
    {
      "mesh": 1,
      "name": "Object003_RAMY_0"
    },
    {
      "mesh": 2,
      "name": "Object003_OBRAZ_0"
    },
    {
      "children": [
        11
      ],
      "matrix": [
        1,
        0,
        0,
        0,
        0,
        2.2204460492503131e-16,
        -1,
        0,
        0,
        1,
        2.2204460492503131e-16,
        0,
        0.027865853160619736,
        0,
        0,
        1
      ],
      "name": "Object004"
    },
    {
      "children": [
        12
      ],
      "matrix": [
        1,
        0,
        0,
        0,
        0,
        6.123233995736766e-17,
        -1,
        0,
        -0,
        1,
        6.123233995736766e-17,
        0,
        0.039721205830574036,
        -0.76467084884643555,
        -2.9036283493041992,
        1
      ],
      "name": ""
    },
    {
      "mesh": 3,
      "name": "Object004_Material #89_0"
    }
  ],
  "samplers": [
    {
      "magFilter": 9729,
      "minFilter": 9987,
      "wrapS": 10497,
      "wrapT": 10497
    }
  ],
  "scene": 0,
  "scenes": [
    {
      "name": "OSG_Scene",
      "nodes": [
        0
      ]
    }
  ],
  "textures": [
    {
      "sampler": 0,
      "source": 0
    },
    {
      "sampler": 0,
      "source": 1
    },
    {
      "sampler": 0,
      "source": 2
    },
    {
      "sampler": 0,
      "source": 3
    },
    {
      "sampler": 0,
      "source": 4
    }
  ]
}

