{
  "accessors": [
    {
      "bufferView": 2,
      "componentType": 5126,
      "count": 5801,
      "max": [
        2.8418350219726562,
        1.2694710493087769,
        0.3222079873085022
      ],
      "min": [
        -2.1858620643615723,
        -1.1813730001449585,
        -0.30246400833129883
      ],
      "type": "VEC3"
    },
    {
      "bufferView": 2,
      "byteOffset": 69612,
      "componentType": 5126,
      "count": 5801,
      "max": [
        1,
        1,
        1
      ],
      "min": [
        -1,
        -1,
        -1
      ],
      "type": "VEC3"
    },
    {
      "bufferView": 3,
      "componentType": 5126,
      "count": 5801,
      "max": [
        1,
        1,
        1,
        1
      ],
      "min": [
        -0.98199677467346191,
        -1,
        -1,
        -1
      ],
      "type": "VEC4"
    },
    {
      "bufferView": 1,
      "componentType": 5126,
      "count": 5801,
      "max": [
        1.0187180042266846,
        2.160775899887085
      ],
      "min": [
        -1.1977369785308838,
        0.090267002582550049
      ],
      "type": "VEC2"
    },
    {
      "bufferView": 0,
      "componentType": 5125,
      "count": 14508,
      "max": [
        5800
      ],
      "min": [
        0
      ],
      "type": "SCALAR"
    },
    {
      "bufferView": 2,
      "byteOffset": 139224,
      "componentType": 5126,
      "count": 612,
      "max": [
        -2.2396910190582275,
        0.82566100358963013,
        -0.25905400514602661
      ],
      "min": [
        -2.6668260097503662,
        -0.81749802827835083,
        -0.28405401110649109
      ],
      "type": "VEC3"
    },
    {
      "bufferView": 2,
      "byteOffset": 146568,
      "componentType": 5126,
      "count": 612,
      "max": [
        1,
        1,
        1
      ],
      "min": [
        -1,
        -1,
        -1
      ],
      "type": "VEC3"
    },
    {
      "bufferView": 3,
      "byteOffset": 92816,
      "componentType": 5126,
      "count": 612,
      "max": [
        0.73459553718566895,
        1,
        1,
        1
      ],
      "min": [
        -0.70656144618988037,
        -0.10055199265480042,
        -1,
        -1
      ],
      "type": "VEC4"
    },
    {
      "bufferView": 1,
      "byteOffset": 46408,
      "componentType": 5126,
      "count": 612,
      "max": [
        0.48041298985481262,
        0.87847000360488892
      ],
      "min": [
        0.24667400121688843,
        0.81770998239517212
      ],
      "type": "VEC2"
    },
    {
      "bufferView": 0,
      "byteOffset": 58032,
      "componentType": 5125,
      "count": 3648,
      "max": [
        611
      ],
      "min": [
        0
      ],
      "type": "SCALAR"
    },
    {
      "bufferView": 2,
      "byteOffset": 153912,
      "componentType": 5126,
      "count": 16372,
      "max": [
        2.8570020198822021,
        1.2699999809265137,
        -0.21746599674224854
      ],
      "min": [
        -2.8570020198822021,
        -1.2699999809265137,
        -0.26866200566291809
      ],
      "type": "VEC3"
    },
    {
      "bufferView": 2,
      "byteOffset": 350376,
      "componentType": 5126,
      "count": 16372,
      "max": [
        1,
        1,
        1
      ],
      "min": [
        -1,
        -1,
        -1
      ],
      "type": "VEC3"
    },
    {
      "bufferView": 3,
      "byteOffset": 102608,
      "componentType": 5126,
      "count": 16372,
      "max": [
        0.19322189688682556,
        1,
        1,
        1
      ],
      "min": [
        -0.21897138655185699,
        -1,
        -1,
        -1
      ],
      "type": "VEC4"
    },
    {
      "bufferView": 1,
      "byteOffset": 51304,
      "componentType": 5126,
      "count": 16372,
      "max": [
        0.9683539867401123,
        0.90245401859283447
      ],
      "min": [
        0.18168500065803528,
        0.085940003395080566
      ],
      "type": "VEC2"
    },
    {
      "bufferView": 0,
      "byteOffset": 72624,
      "componentType": 5125,
      "count": 95616,
      "max": [
        16371
      ],
      "min": [
        0
      ],
      "type": "SCALAR"
    },
    {
      "bufferView": 2,
      "byteOffset": 546840,
      "componentType": 5126,
      "count": 666,
      "max": [
        2.8377630710601807,
        1.1578830480575562,
        0.29029598832130432
      ],
      "min": [
        0.45074799656867981,
        -1.2366969585418701,
        -0.22559399902820587
      ],
      "type": "VEC3"
    },
    {
      "bufferView": 2,
      "byteOffset": 554832,
      "componentType": 5126,
      "count": 666,
      "max": [
        1,
        1,
        1
      ],
      "min": [
        -1,
        -1,
        -1
      ],
      "type": "VEC3"
    },
    {
      "bufferView": 3,
      "byteOffset": 364560,
      "componentType": 5126,
      "count": 666,
      "max": [
        0.97904491424560547,
        1,
        1,
        1
      ],
      "min": [
        -0.69347792863845825,
        -0.80738693475723267,
        -0.81650763750076294,
        -1
      ],
      "type": "VEC4"
    },
    {
      "bufferView": 1,
      "byteOffset": 182280,
      "componentType": 5126,
      "count": 666,
      "max": [
        0.94806700944900513,
        0.43073400855064392
      ],
      "min": [
        0.60913801193237305,
        0.090644001960754395
      ],
      "type": "VEC2"
    },
    {
      "bufferView": 0,
      "byteOffset": 455088,
      "componentType": 5125,
      "count": 1500,
      "max": [
        665
      ],
      "min": [
        0
      ],
      "type": "SCALAR"
    }
  ],
  "asset": {
    "extras": {
      "author": "Scott VanArsdale (https://sketchfab.com/vanart)",
      "license": "CC-BY-4.0 (http://creativecommons.org/licenses/by/4.0/)",
      "source": "https://sketchfab.com/models/1f42057bfd3a4a7da383f935576268bb",
      "title": "Circuit Board TI"
    },
    "generator": "Sketchfab-3.24.2",
    "version": "2.0"
  },
  "bufferViews": [
    {
      "buffer": 0,
      "byteLength": 461088,
      "byteOffset": 0,
      "name": "floatBufferViews",
      "target": 34963
    },
    {
      "buffer": 0,
      "byteLength": 187608,
      "byteOffset": 461088,
      "byteStride": 8,
      "name": "floatBufferViews",
      "target": 34962
    },
    {
      "buffer": 0,
      "byteLength": 562824,
      "byteOffset": 648696,
      "byteStride": 12,
      "name": "floatBufferViews",
      "target": 34962
    },
    {
      "buffer": 0,
      "byteLength": 375216,
      "byteOffset": 1211520,
      "byteStride": 16,
      "name": "floatBufferViews",
      "target": 34962
    }
  ],
  "buffers": [
    {
      "byteLength": 1586736,
      "uri": "scene.bin"
    }
  ],
  "images": [
    {
      "uri": "textures/Scene_-_Root_baseColor.png"
    },
    {
      "uri": "textures/Scene_-_Root_normal.png"
    },
    {
      "uri": "textures/Scene_-_Root_metallicRoughness.png"
    }
  ],
  "materials": [
    {
      "doubleSided": false,
      "name": "Scene_-_Root",
      "normalTexture": {
        "index": 1,
        "scale": 1,
        "texCoord": 0
      },
      "occlusionTexture": {
        "index": 2,
        "strength": 1,
        "texCoord": 0
      },
      "pbrMetallicRoughness": {
        "baseColorFactor": [
          1,
          1,
          1,
          1
        ],
        "baseColorTexture": {
          "index": 0,
          "texCoord": 0
        },
        "metallicFactor": 1,
        "metallicRoughnessTexture": {
          "index": 2,
          "texCoord": 0
        },
        "roughnessFactor": 1
      }
    }
  ],
  "meshes": [
    {
      "primitives": [
        {
          "attributes": {
            "NORMAL": 1,
            "POSITION": 0,
            "TANGENT": 2,
            "TEXCOORD_0": 3
          },
          "indices": 4,
          "material": 0,
          "mode": 4
        }
      ]
    },
    {
      "primitives": [
        {
          "attributes": {
            "NORMAL": 6,
            "POSITION": 5,
            "TANGENT": 7,
            "TEXCOORD_0": 8
          },
          "indices": 9,
          "material": 0,
          "mode": 4
        }
      ]
    },
    {
      "primitives": [
        {
          "attributes": {
            "NORMAL": 11,
            "POSITION": 10,
            "TANGENT": 12,
            "TEXCOORD_0": 13
          },
          "indices": 14,
          "material": 0,
          "mode": 4
        }
      ]
    },
    {
      "primitives": [
        {
          "attributes": {
            "NORMAL": 16,
            "POSITION": 15,
            "TANGENT": 17,
            "TEXCOORD_0": 18
          },
          "indices": 19,
          "material": 0,
          "mode": 4
        }
      ]
    }
  ],
  "nodes": [
    {
      "children": [
        1
      ],
      "name": "RootNode (gltf orientation matrix)",
      "rotation": [
        -0.70710678118654746,
        -0,
        -0,
        0.70710678118654757
      ]
    },
    {
      "children": [
        2
      ],
      "name": "RootNode (model correction matrix)"
    },
    {
      "children": [
        3,
        4,
        5,
        6
      ],
      "name": "circuitBoard_01.obj.cleaner.materialmerger.gles"
    },
    {
      "mesh": 0,
      "name": ""
    },
    {
      "mesh": 1,
      "name": ""
    },
    {
      "mesh": 2,
      "name": ""
    },
    {
      "mesh": 3,
      "name": ""
    }
  ],
  "samplers": [
    {
      "magFilter": 9729,
      "minFilter": 9987,
      "wrapS": 10497,
      "wrapT": 10497
    }
  ],
  "scene": 0,
  "scenes": [
    {
      "name": "OSG_Scene",
      "nodes": [
        0
      ]
    }
  ],
  "textures": [
    {
      "sampler": 0,
      "source": 0
    },
    {
      "sampler": 0,
      "source": 1
    },
    {
      "sampler": 0,
      "source": 2
    }
  ]
}

