{
  "accessors": [
    {
      "bufferView": 2,
      "componentType": 5126,
      "count": 1432,
      "max": [
        0.7809939980506897,
        0.7809939980506897,
        2.8112139701843262
      ],
      "min": [
        -0.7809939980506897,
        -1.0458799600601196,
        0.47989198565483093
      ],
      "type": "VEC3"
    },
    {
      "bufferView": 2,
      "byteOffset": 17184,
      "componentType": 5126,
      "count": 1432,
      "max": [
        0.99999308586120605,
        0.99410343170166016,
        1
      ],
      "min": [
        -0.99999308586120605,
        -0.99969190359115601,
        -1
      ],
      "type": "VEC3"
    },
    {
      "bufferView": 3,
      "componentType": 5126,
      "count": 1432,
      "max": [
        0.99992525577545166,
        0.8015143871307373,
        0.83405262231826782,
        1
      ],
      "min": [
        -0.99992543458938599,
        -0.99138200283050537,
        -0.99743729829788208,
        1
      ],
      "type": "VEC4"
    },
    {
      "bufferView": 1,
      "componentType": 5126,
      "count": 1432,
      "max": [
        0.99976402521133423,
        0.98176300525665283
      ],
      "min": [
        0.00023600000713486224,
        0.00023600000713486224
      ],
      "type": "VEC2"
    },
    {
      "bufferView": 0,
      "componentType": 5125,
      "count": 6780,
      "max": [
        1431
      ],
      "min": [
        0
      ],
      "type": "SCALAR"
    },
    {
      "bufferView": 2,
      "byteOffset": 34368,
      "componentType": 5126,
      "count": 108,
      "max": [
        0.11753199994564056,
        0.8892899751663208,
        3.1802411079406738
      ],
      "min": [
        -0.020920999348163605,
        -1.3015409708023071,
        2.2229568958282471
      ],
      "type": "VEC3"
    },
    {
      "bufferView": 2,
      "byteOffset": 35664,
      "componentType": 5126,
      "count": 108,
      "max": [
        0.99302351474761963,
        0.98521840572357178,
        0.9982757568359375
      ],
      "min": [
        -0.99302351474761963,
        -0.9874381422996521,
        -0.9874381422996521
      ],
      "type": "VEC3"
    },
    {
      "bufferView": 3,
      "byteOffset": 22912,
      "componentType": 5126,
      "count": 108,
      "max": [
        0,
        0,
        0,
        1
      ],
      "min": [
        0,
        0,
        0,
        1
      ],
      "type": "VEC4"
    },
    {
      "bufferView": 1,
      "byteOffset": 11456,
      "componentType": 5126,
      "count": 108,
      "max": [
        0,
        0
      ],
      "min": [
        0,
        0
      ],
      "type": "VEC2"
    },
    {
      "bufferView": 0,
      "byteOffset": 27120,
      "componentType": 5125,
      "count": 144,
      "max": [
        107
      ],
      "min": [
        0
      ],
      "type": "SCALAR"
    },
    {
      "bufferView": 2,
      "byteOffset": 36960,
      "componentType": 5126,
      "count": 14,
      "max": [
        0.7510409951210022,
        0.41210800409317017,
        0.84093999862670898
      ],
      "min": [
        0.55019098520278931,
        -0.41210699081420898,
        0.58845800161361694
      ],
      "type": "VEC3"
    },
    {
      "bufferView": 2,
      "byteOffset": 37128,
      "componentType": 5126,
      "count": 14,
      "max": [
        0.9404979944229126,
        0.44360846281051636,
        0.33980712294578552
      ],
      "min": [
        0.82991588115692139,
        -0.44360846281051636,
        0.33830645680427551
      ],
      "type": "VEC3"
    },
    {
      "bufferView": 3,
      "byteOffset": 24640,
      "componentType": 5126,
      "count": 14,
      "max": [
        0.41972354054450989,
        0.99993181228637695,
        0.14520010352134705,
        1
      ],
      "min": [
        -0.41106003522872925,
        0.89596301317214966,
        -0.16679029166698456,
        1
      ],
      "type": "VEC4"
    },
    {
      "bufferView": 1,
      "byteOffset": 12320,
      "componentType": 5126,
      "count": 14,
      "max": [
        0.98818397521972656,
        0.69099599123001099
      ],
      "min": [
        0.024746999144554138,
        0.34535500407218933
      ],
      "type": "VEC2"
    },
    {
      "bufferView": 0,
      "byteOffset": 27696,
      "componentType": 5125,
      "count": 36,
      "max": [
        13
      ],
      "min": [
        0
      ],
      "type": "SCALAR"
    }
  ],
  "asset": {
    "extras": {
      "author": "utsuki (https://sketchfab.com/utsuki)",
      "license": "CC-BY-4.0 (http://creativecommons.org/licenses/by/4.0/)",
      "source": "https://sketchfab.com/models/d74764fa60784ca8bb132598162168ff",
      "title": "Meme trophy"
    },
    "generator": "Sketchfab-4.12.0",
    "version": "2.0"
  },
  "bufferViews": [
    {
      "buffer": 0,
      "byteLength": 27840,
      "byteOffset": 0,
      "name": "floatBufferViews",
      "target": 34963
    },
    {
      "buffer": 0,
      "byteLength": 12432,
      "byteOffset": 27840,
      "byteStride": 8,
      "name": "floatBufferViews",
      "target": 34962
    },
    {
      "buffer": 0,
      "byteLength": 37296,
      "byteOffset": 40272,
      "byteStride": 12,
      "name": "floatBufferViews",
      "target": 34962
    },
    {
      "buffer": 0,
      "byteLength": 24864,
      "byteOffset": 77568,
      "byteStride": 16,
      "name": "floatBufferViews",
      "target": 34962
    }
  ],
  "buffers": [
    {
      "byteLength": 102432,
      "uri": "scene.bin"
    }
  ],
  "images": [
    {
      "uri": "textures/word_metallicRoughness.png"
    },
    {
      "uri": "textures/word_baseColor.png"
    }
  ],
  "materials": [
    {
      "doubleSided": true,
      "name": "gold",
      "pbrMetallicRoughness": {
        "baseColorFactor": [
          0.7926760665,
          0.48353588650000001,
          0.1409890677,
          1
        ],
        "metallicFactor": 1,
        "roughnessFactor": 0.1898818598
      }
    },
    {
      "doubleSided": true,
      "name": "material",
      "pbrMetallicRoughness": {
        "baseColorFactor": [
          1,
          1,
          1,
          1
        ],
        "metallicFactor": 0.84841844509999997,
        "roughnessFactor": 0.28134527440000001
      }
    },
    {
      "doubleSided": true,
      "name": "word",
      "pbrMetallicRoughness": {
        "baseColorFactor": [
          1,
          1,
          1,
          1
        ],
        "baseColorTexture": {
          "index": 1,
          "texCoord": 0
        },
        "metallicFactor": 1,
        "metallicRoughnessTexture": {
          "index": 0,
          "texCoord": 0
        },
        "roughnessFactor": 0.1106135671
      }
    }
  ],
  "meshes": [
    {
      "primitives": [
        {
          "attributes": {
            "NORMAL": 1,
            "POSITION": 0,
            "TANGENT": 2,
            "TEXCOORD_0": 3
          },
          "indices": 4,
          "material": 0,
          "mode": 4
        }
      ]
    },
    {
      "primitives": [
        {
          "attributes": {
            "NORMAL": 6,
            "POSITION": 5,
            "TANGENT": 7,
            "TEXCOORD_0": 8
          },
          "indices": 9,
          "material": 1,
          "mode": 4
        }
      ]
    },
    {
      "primitives": [
        {
          "attributes": {
            "NORMAL": 11,
            "POSITION": 10,
            "TANGENT": 12,
            "TEXCOORD_0": 13
          },
          "indices": 14,
          "material": 2,
          "mode": 4
        }
      ]
    }
  ],
  "nodes": [
    {
      "children": [
        1
      ],
      "name": "RootNode (gltf orientation matrix)",
      "rotation": [
        -0.70710678118654746,
        -0,
        -0,
        0.70710678118654757
      ]
    },
    {
      "children": [
        2
      ],
      "name": "RootNode (model correction matrix)"
    },
    {
      "children": [
        3,
        4,
        5
      ],
      "name": "96ae2b3e95c043e3998afc37ae5367cc.obj.cleaner.materialmerger.gles"
    },
    {
      "mesh": 0,
      "name": ""
    },
    {
      "mesh": 1,
      "name": ""
    },
    {
      "mesh": 2,
      "name": ""
    }
  ],
  "samplers": [
    {
      "magFilter": 9729,
      "minFilter": 9987,
      "wrapS": 10497,
      "wrapT": 10497
    }
  ],
  "scene": 0,
  "scenes": [
    {
      "name": "OSG_Scene",
      "nodes": [
        0
      ]
    }
  ],
  "textures": [
    {
      "sampler": 0,
      "source": 0
    },
    {
      "sampler": 0,
      "source": 1
    }
  ]
}

