{
  "accessors": [
    {
      "bufferView": 2,
      "componentType": 5126,
      "count": 763,
      "max": [
        16.458799362182617,
        181.74649047851562,
        325.37490844726562
      ],
      "min": [
        -162.27630615234375,
        -18.253517150878906,
        -74.625106811523438
      ],
      "type": "VEC3"
    },
    {
      "bufferView": 2,
      "byteOffset": 9156,
      "componentType": 5126,
      "count": 763,
      "max": [
        1,
        1,
        1
      ],
      "min": [
        -1,
        -0.9983869194984436,
        -1
      ],
      "type": "VEC3"
    },
    {
      "bufferView": 3,
      "componentType": 5126,
      "count": 763,
      "max": [
        1,
        0.93022066354751587,
        1,
        1
      ],
      "min": [
        -1,
        -0.93022066354751587,
        -0.93022066354751587,
        1
      ],
      "type": "VEC4"
    },
    {
      "bufferView": 1,
      "componentType": 5126,
      "count": 763,
      "max": [
        1,
        1
      ],
      "min": [
        0,
        0
      ],
      "type": "VEC2"
    },
    {
      "bufferView": 0,
      "componentType": 5125,
      "count": 3168,
      "max": [
        762
      ],
      "min": [
        0
      ],
      "type": "SCALAR"
    },
    {
      "bufferView": 2,
      "byteOffset": 18312,
      "componentType": 5126,
      "count": 66,
      "max": [
        -108.43316650390625,
        142.38575744628906,
        110.33960723876953
      ],
      "min": [
        -141.49954223632812,
        139.55540466308594,
        98.29705810546875
      ],
      "type": "VEC3"
    },
    {
      "bufferView": 2,
      "byteOffset": 19104,
      "componentType": 5126,
      "count": 66,
      "max": [
        0.7071068286895752,
        0.90453404188156128,
        0.7071068286895752
      ],
      "min": [
        -0.7071068286895752,
        -0.90453404188156128,
        -0.7071068286895752
      ],
      "type": "VEC3"
    },
    {
      "bufferView": 3,
      "byteOffset": 12208,
      "componentType": 5126,
      "count": 66,
      "max": [
        1,
        0.69905531406402588,
        0.81649667024612427,
        1
      ],
      "min": [
        -1,
        -0.69905531406402588,
        -0.81649667024612427,
        1
      ],
      "type": "VEC4"
    },
    {
      "bufferView": 1,
      "byteOffset": 6104,
      "componentType": 5126,
      "count": 66,
      "max": [
        1,
        1
      ],
      "min": [
        0,
        0
      ],
      "type": "VEC2"
    },
    {
      "bufferView": 0,
      "byteOffset": 12672,
      "componentType": 5125,
      "count": 204,
      "max": [
        65
      ],
      "min": [
        0
      ],
      "type": "SCALAR"
    },
    {
      "bufferView": 2,
      "byteOffset": 19896,
      "componentType": 5126,
      "count": 110,
      "max": [
        -59.342262268066406,
        168.554443359375,
        99.73876953125
      ],
      "min": [
        -190.6458740234375,
        106.95230865478516,
        -96.546638488769531
      ],
      "type": "VEC3"
    },
    {
      "bufferView": 2,
      "byteOffset": 21216,
      "componentType": 5126,
      "count": 110,
      "max": [
        1,
        1,
        1
      ],
      "min": [
        -1,
        -1,
        -1
      ],
      "type": "VEC3"
    },
    {
      "bufferView": 3,
      "byteOffset": 13264,
      "componentType": 5126,
      "count": 110,
      "max": [
        1,
        0.97259402275085449,
        1,
        1
      ],
      "min": [
        -1,
        -0.73599129915237427,
        -1,
        -1
      ],
      "type": "VEC4"
    },
    {
      "bufferView": 1,
      "byteOffset": 6632,
      "componentType": 5126,
      "count": 110,
      "max": [
        1,
        1
      ],
      "min": [
        0,
        0
      ],
      "type": "VEC2"
    },
    {
      "bufferView": 0,
      "byteOffset": 13488,
      "componentType": 5125,
      "count": 288,
      "max": [
        109
      ],
      "min": [
        0
      ],
      "type": "SCALAR"
    },
    {
      "bufferView": 2,
      "byteOffset": 22536,
      "componentType": 5126,
      "count": 66,
      "max": [
        -74.038314819335938,
        93.365165710449219,
        110.33960723876953
      ],
      "min": [
        -76.86865234375,
        60.298789978027344,
        98.29705810546875
      ],
      "type": "VEC3"
    },
    {
      "bufferView": 2,
      "byteOffset": 23328,
      "componentType": 5126,
      "count": 66,
      "max": [
        0.90453404188156128,
        0.7071068286895752,
        0.7071068286895752
      ],
      "min": [
        -0.90453404188156128,
        -0.7071068286895752,
        -0.7071068286895752
      ],
      "type": "VEC3"
    },
    {
      "bufferView": 3,
      "byteOffset": 15024,
      "componentType": 5126,
      "count": 66,
      "max": [
        0.69905531406402588,
        1,
        0.81649667024612427,
        1
      ],
      "min": [
        -0.69905531406402588,
        -1,
        -0.81649667024612427,
        1
      ],
      "type": "VEC4"
    },
    {
      "bufferView": 1,
      "byteOffset": 7512,
      "componentType": 5126,
      "count": 66,
      "max": [
        1,
        1
      ],
      "min": [
        0,
        0
      ],
      "type": "VEC2"
    },
    {
      "bufferView": 0,
      "byteOffset": 14640,
      "componentType": 5125,
      "count": 204,
      "max": [
        65
      ],
      "min": [
        0
      ],
      "type": "SCALAR"
    },
    {
      "bufferView": 2,
      "byteOffset": 24120,
      "componentType": 5126,
      "count": 20,
      "max": [
        -59.342262268066406,
        106.27349853515625,
        98.899528503417969
      ],
      "min": [
        -190.6458740234375,
        14.279510498046875,
        93.313133239746094
      ],
      "type": "VEC3"
    },
    {
      "bufferView": 2,
      "byteOffset": 24360,
      "componentType": 5126,
      "count": 20,
      "max": [
        0.029376707971096039,
        0.029376707971096039,
        0.99913662672042847
      ],
      "min": [
        -0.029376707971096039,
        -0.029376707971096039,
        -0.99913662672042847
      ],
      "type": "VEC3"
    },
    {
      "bufferView": 3,
      "byteOffset": 16080,
      "componentType": 5126,
      "count": 20,
      "max": [
        0.99956846237182617,
        0.70649629831314087,
        0.041544940322637558,
        1
      ],
      "min": [
        -0.99956846237182617,
        -0.70649629831314087,
        -0.041544940322637558,
        -1
      ],
      "type": "VEC4"
    },
    {
      "bufferView": 1,
      "byteOffset": 8040,
      "componentType": 5126,
      "count": 20,
      "max": [
        1,
        1
      ],
      "min": [
        0,
        0
      ],
      "type": "VEC2"
    },
    {
      "bufferView": 0,
      "byteOffset": 15456,
      "componentType": 5125,
      "count": 36,
      "max": [
        19
      ],
      "min": [
        0
      ],
      "type": "SCALAR"
    }
  ],
  "asset": {
    "extras": {
      "author": "RYKO197 (https://sketchfab.com/RYKO197)",
      "license": "CC-BY-4.0 (http://creativecommons.org/licenses/by/4.0/)",
      "source": "https://sketchfab.com/3d-models/desk-4c85eb3df8674e2597b96c761c94bd51",
      "title": "Desk"
    },
    "generator": "Sketchfab-5.29.0",
    "version": "2.0"
  },
  "bufferViews": [
    {
      "buffer": 0,
      "byteLength": 15600,
      "byteOffset": 0,
      "name": "floatBufferViews",
      "target": 34963
    },
    {
      "buffer": 0,
      "byteLength": 8200,
      "byteOffset": 15600,
      "byteStride": 8,
      "name": "floatBufferViews",
      "target": 34962
    },
    {
      "buffer": 0,
      "byteLength": 24600,
      "byteOffset": 23800,
      "byteStride": 12,
      "name": "floatBufferViews",
      "target": 34962
    },
    {
      "buffer": 0,
      "byteLength": 16400,
      "byteOffset": 48400,
      "byteStride": 16,
      "name": "floatBufferViews",
      "target": 34962
    }
  ],
  "buffers": [
    {
      "byteLength": 64800,
      "uri": "scene.bin"
    }
  ],
  "materials": [
    {
      "doubleSided": true,
      "emissiveFactor": [
        0,
        0,
        0
      ],
      "name": "Mat.1",
      "pbrMetallicRoughness": {
        "baseColorFactor": [
          0.69892500000000002,
          0.58137799999999995,
          0.48520400000000002,
          1
        ],
        "metallicFactor": 0,
        "roughnessFactor": 0.94681704099999997
      }
    },
    {
      "doubleSided": true,
      "emissiveFactor": [
        0,
        0,
        0
      ],
      "name": "chrome",
      "pbrMetallicRoughness": {
        "baseColorFactor": [
          0.80000000000000004,
          0.80000000000000004,
          0.80000000000000004,
          1
        ],
        "metallicFactor": 0,
        "roughnessFactor": 0.94681704099999997
      }
    },
    {
      "doubleSided": true,
      "emissiveFactor": [
        0,
        0,
        0
      ],
      "name": "material",
      "pbrMetallicRoughness": {
        "baseColorFactor": [
          0.053763400000000003,
          0.053763400000000003,
          0.053763400000000003,
          1
        ],
        "metallicFactor": 0,
        "roughnessFactor": 0.94681704099999997
      }
    }
  ],
  "meshes": [
    {
      "name": "Desk_Mat.1_0",
      "primitives": [
        {
          "attributes": {
            "NORMAL": 1,
            "POSITION": 0,
            "TANGENT": 2,
            "TEXCOORD_0": 3
          },
          "indices": 4,
          "material": 0,
          "mode": 4
        }
      ]
    },
    {
      "name": "Handle3_chrome_0",
      "primitives": [
        {
          "attributes": {
            "NORMAL": 6,
            "POSITION": 5,
            "TANGENT": 7,
            "TEXCOORD_0": 8
          },
          "indices": 9,
          "material": 1,
          "mode": 4
        }
      ]
    },
    {
      "name": "Handle3_Mat_0",
      "primitives": [
        {
          "attributes": {
            "NORMAL": 11,
            "POSITION": 10,
            "TANGENT": 12,
            "TEXCOORD_0": 13
          },
          "indices": 14,
          "material": 2,
          "mode": 4
        }
      ]
    },
    {
      "name": "Handle4_chrome_0",
      "primitives": [
        {
          "attributes": {
            "NORMAL": 16,
            "POSITION": 15,
            "TANGENT": 17,
            "TEXCOORD_0": 18
          },
          "indices": 19,
          "material": 1,
          "mode": 4
        }
      ]
    },
    {
      "name": "Handle4_Mat_0",
      "primitives": [
        {
          "attributes": {
            "NORMAL": 21,
            "POSITION": 20,
            "TANGENT": 22,
            "TEXCOORD_0": 23
          },
          "indices": 24,
          "material": 2,
          "mode": 4
        }
      ]
    }
  ],
  "nodes": [
    {
      "children": [
        1
      ],
      "name": "RootNode (gltf orientation matrix)",
      "rotation": [
        -0.70710678118654746,
        -0,
        -0,
        0.70710678118654757
      ]
    },
    {
      "children": [
        2
      ],
      "name": "RootNode (model correction matrix)"
    },
    {
      "children": [
        3
      ],
      "matrix": [
        1,
        0,
        0,
        0,
        0,
        0,
        1,
        0,
        0,
        -1,
        0,
        0,
        0,
        0,
        0,
        1
      ],
      "name": "f962f480cddf49908285ebfbc0a5291e.fbx"
    },
    {
      "children": [
        4,
        6,
        9
      ],
      "name": "RootNode"
    },
    {
      "children": [
        5
      ],
      "matrix": [
        0,
        -1,
        0,
        0,
        0,
        0,
        -1,
        0,
        1,
        0,
        0,
        0,
        -125.37489318847656,
        16.458799362182617,
        81.746482849121094,
        1
      ],
      "name": "Desk"
    },
    {
      "mesh": 0,
      "name": "Desk_Mat.1_0"
    },
    {
      "children": [
        7,
        8
      ],
      "matrix": [
        1,
        0,
        0,
        0,
        0,
        1,
        0,
        0,
        0,
        0,
        1,
        0,
        0,
        0,
        -7.4515743255615234,
        1
      ],
      "name": "Handle3"
    },
    {
      "mesh": 1,
      "name": "Handle3_chrome_0"
    },
    {
      "mesh": 2,
      "name": "Handle3_Mat_0"
    },
    {
      "children": [
        10,
        11
      ],
      "matrix": [
        1,
        0,
        0,
        0,
        0,
        1,
        0,
        0,
        0,
        0,
        1,
        0,
        0,
        0,
        -8.239415168762207,
        1
      ],
      "name": "Handle4"
    },
    {
      "mesh": 3,
      "name": "Handle4_chrome_0"
    },
    {
      "mesh": 4,
      "name": "Handle4_Mat_0"
    }
  ],
  "scene": 0,
  "scenes": [
    {
      "name": "OSG_Scene",
      "nodes": [
        0
      ]
    }
  ]
}

